<svg width="183" height="45" viewBox="0 0 183 45" fill="none" xmlns="http://www.w3.org/2000/svg">
<g clip-path="url(#clip0)" filter="url(#filter0_d)">
<path d="M39.2092 11.746C39.9064 12.2159 40.7198 12.5683 41.7656 12.8032C42.8114 13.0381 43.8573 13.1556 45.0193 13.1556C46.2975 13.1556 47.4595 13.0381 48.3891 12.6857C49.3187 12.3333 50.1322 11.8635 50.597 11.2762C51.0618 10.6889 51.4104 9.98413 51.4104 9.16191C51.4104 7.86984 50.7132 6.93016 49.2025 6.34286C48.7377 6.2254 48.1567 6.10794 47.5757 5.99048C46.8785 5.99048 46.0651 5.87302 44.9031 5.87302H44.7869C43.7411 5.87302 42.9276 5.75556 42.4628 5.75556C41.8818 5.6381 41.417 5.6381 41.0684 5.40318C40.6036 5.28572 40.255 5.0508 40.0226 4.81588C39.7902 4.58095 39.674 4.22857 39.674 3.87619C39.674 3.17143 40.0226 2.46667 40.836 1.99683C41.5332 1.52699 42.579 1.29207 43.8573 1.17461C43.9735 1.17461 44.2059 1.17461 44.4383 1.17461C45.6003 1.17461 46.6461 1.40953 47.6919 1.76191C48.6215 2.11429 49.3188 2.70159 49.7836 3.28889C49.8998 3.40635 50.016 3.52381 50.2484 3.52381C50.3646 3.52381 50.4808 3.52381 50.597 3.40635C50.7132 3.28889 50.8294 3.17143 50.8294 2.93651C50.8294 2.81905 50.8294 2.70159 50.7132 2.70159C50.2484 1.87937 49.4349 1.29207 48.2729 0.822224C47.1109 0.352383 45.9489 0.117462 44.5545 0.117462C44.3221 0.117462 44.0897 0.117462 43.9735 0.117462C42.9276 0.117462 41.998 0.352383 41.1846 0.704764C40.3712 1.05714 39.7902 1.40953 39.3254 1.99683C38.8606 2.58413 38.6282 3.17143 38.6282 3.87619C38.6282 4.58095 38.8606 5.0508 39.2092 5.52064C39.5578 5.99048 40.1388 6.34286 40.836 6.57778C41.3008 6.69524 41.7656 6.8127 42.3466 6.93016C42.9276 7.04762 43.7411 7.04762 44.9031 7.16508H45.0193C45.9489 7.04762 46.7623 7.04762 47.3433 7.16508C47.9243 7.28254 48.3891 7.4 48.7377 7.51746C49.2025 7.75238 49.6674 7.9873 49.8998 8.22222C50.1322 8.45714 50.2484 8.92699 50.2484 9.27937C50.2484 9.86667 50.016 10.3365 49.5512 10.8064C49.0863 11.2762 48.5053 11.5111 47.6919 11.746C46.8785 11.981 45.9489 12.0984 44.9031 12.0984C43.8573 12.0984 42.9276 11.981 42.1142 11.746C41.3008 11.5111 40.4874 11.2762 39.9064 10.9238C39.3254 10.5714 38.9768 10.219 38.8606 9.74921C38.8606 9.63175 38.7444 9.51429 38.6282 9.51429C38.6282 9.39683 38.512 9.39683 38.3958 9.39683C38.2796 9.39683 38.2796 9.39683 38.2796 9.39683C38.1634 9.39683 38.0472 9.51429 38.0472 9.63175C37.931 9.74921 37.931 9.86667 37.931 9.98413C37.931 10.1016 37.931 10.1016 37.931 10.1016C38.1634 10.6889 38.512 11.1587 39.2092 11.746Z" fill="white"/>
<path d="M55.7098 12.9206C55.826 13.0381 55.9422 13.0381 56.0584 13.0381C56.1746 13.0381 56.1746 13.0381 56.1746 13.0381C56.407 13.0381 56.5232 12.8032 56.5232 12.3333V10.5714V6.57778C56.5232 5.99048 56.5232 5.52064 56.5232 5.16826V4.58095C56.5232 4.11111 56.5232 3.75873 56.5232 3.40635C56.5232 2.81905 56.5232 2.46667 56.5232 2.11429C56.5232 1.52699 56.5232 1.17461 56.5232 1.05714V0.587303C56.5232 0.469843 56.407 0.352383 56.2908 0.234922C56.1746 0.117462 56.0584 0.117462 55.9422 0.117462C55.826 0.117462 55.5936 0.117462 55.5936 0.234922C55.4774 0.352383 55.4774 0.469843 55.4774 0.587303V1.64445C55.4774 2.11429 55.4774 2.81905 55.4774 3.87619V5.16826C55.4774 5.52064 55.4774 5.99048 55.4774 6.57778V10.5714V11.8635C55.4774 12.2159 55.4774 12.4508 55.4774 12.5683C55.5936 12.8032 55.5936 12.9206 55.7098 12.9206Z" fill="white"/>
<path d="M62.3333 11.746C63.0305 12.2159 63.844 12.5683 64.8898 12.8032C65.9356 13.0381 66.9814 13.1556 68.1434 13.1556C69.4216 13.1556 70.5837 13.0381 71.5133 12.6857C72.4429 12.3333 73.2563 11.8635 73.7211 11.2762C74.1859 10.6889 74.5345 9.98413 74.5345 9.16191C74.5345 7.86984 73.8373 6.93016 72.3267 6.34286C71.8619 6.2254 71.2809 6.10794 70.6999 5.99048C70.1189 5.87302 69.1892 5.87302 68.1434 5.75556H68.0272C66.9814 5.75556 66.168 5.6381 65.7032 5.6381C65.1222 5.52064 64.6574 5.52064 64.3088 5.28572C63.844 5.16826 63.4953 4.93334 63.2629 4.69841C63.0305 4.46349 62.9143 4.11111 62.9143 3.75873C62.9143 3.05397 63.2629 2.34921 64.0764 1.87937C64.5412 1.52699 65.4708 1.29207 66.749 1.17461C66.8652 1.17461 67.0976 1.17461 67.33 1.17461C68.492 1.17461 69.5378 1.40953 70.5837 1.76191C71.5133 2.11429 72.2105 2.70159 72.6753 3.28889C72.7915 3.52381 72.9077 3.52381 73.0239 3.52381C73.1401 3.52381 73.2563 3.52381 73.3725 3.40635C73.4887 3.28889 73.6049 3.17143 73.6049 2.93651C73.6049 2.81905 73.6049 2.70159 73.4887 2.70159C73.0239 1.87937 72.2105 1.29207 71.0485 0.822224C69.8865 0.352383 68.7244 0.117462 67.33 0.117462C67.0976 0.117462 66.8652 0.117462 66.749 0.117462C65.7032 0.117462 64.7736 0.352383 63.9602 0.704764C63.1467 1.05714 62.5657 1.40953 62.1009 1.99683C61.6361 2.58413 61.4037 3.17143 61.4037 3.87619C61.4037 4.58095 61.5199 5.0508 61.9847 5.52064C62.3333 5.99048 62.9143 6.34286 63.6115 6.57778C64.0764 6.69524 64.5412 6.8127 65.1222 6.93016C65.7032 7.04762 66.5166 7.04762 67.6786 7.16508L67.911 7.04762C68.9568 7.16508 69.7702 7.16508 70.3513 7.28254C70.9323 7.4 71.3971 7.51746 71.7457 7.63492C72.2105 7.86984 72.6753 8.10476 72.9077 8.33968C73.1401 8.5746 73.2563 9.04445 73.2563 9.39683C73.2563 9.98413 73.0239 10.454 72.5591 10.9238C72.0943 11.3937 71.5133 11.6286 70.6999 11.8635C69.8865 12.0984 68.9568 12.2159 67.911 12.2159C66.8652 12.2159 65.9356 12.0984 65.1222 11.8635C64.3088 11.6286 63.4953 11.3937 62.9143 11.0413C62.3333 10.6889 61.9847 10.3365 61.8685 9.86667C61.8685 9.74921 61.7523 9.63175 61.6361 9.63175C61.7523 9.51429 61.6361 9.39683 61.5199 9.39683C61.4037 9.39683 61.4037 9.39683 61.4037 9.39683C61.2875 9.39683 61.1713 9.51429 61.1713 9.63175C60.9389 9.74921 60.9389 9.86667 60.9389 9.98413C60.9389 10.1016 60.9389 10.1016 60.9389 10.1016C61.1713 10.8064 61.6361 11.2762 62.3333 11.746Z" fill="white"/>
<path d="M76.1613 1.52699C78.7178 1.52699 80.6932 1.52699 82.32 1.52699C82.32 6.57779 82.32 10.3365 82.32 12.8032C82.32 12.9206 82.32 13.1556 82.4362 13.1556C82.5524 13.273 82.6686 13.273 82.7848 13.273C82.9011 13.273 83.1334 13.273 83.1334 13.1556C83.2497 13.0381 83.2496 12.9206 83.2496 12.8032C83.2496 10.3365 83.2496 6.57779 83.2496 1.52699H89.4083C89.5246 1.52699 89.6408 1.52699 89.757 1.40953C89.9894 1.29207 90.1056 1.17461 90.1056 1.05715C90.1056 0.939692 90.1056 0.822231 89.9894 0.704771C89.8732 0.587311 89.757 0.587311 89.6408 0.587311H87.0843H84.4117H83.9469H81.5066C79.996 0.587311 78.253 0.587311 76.3937 0.587311C76.2775 0.587311 76.1613 0.587311 76.0451 0.704771C75.9289 0.822231 75.9289 0.939692 75.9289 1.05715C75.9289 1.17461 75.9289 1.29207 76.0451 1.40953C75.8127 1.52699 75.9289 1.52699 76.1613 1.52699Z" fill="white"/>
<path d="M104.398 12.5683C104.398 12.4508 104.398 12.3333 104.282 12.2159C104.166 12.0984 104.05 12.0984 103.934 12.0984H99.2855H96.6129H94.6375V8.57462H97.8911C98.3559 8.57462 98.9369 8.57462 99.5179 8.57462C100.099 8.57462 100.448 8.57462 100.564 8.57462C100.68 8.57462 100.796 8.57462 100.912 8.45716C101.029 8.33969 101.029 8.22224 101.145 8.10477C101.145 7.98731 101.145 7.75239 101.029 7.75239C100.912 7.63493 100.796 7.63493 100.68 7.63493C100.564 7.63493 100.099 7.63493 99.6342 7.63493C98.9369 7.63493 98.3559 7.63493 98.0073 7.63493H94.7537C94.7537 5.16827 94.7537 3.2889 94.7537 1.87938C95.9157 1.87938 97.5425 1.87938 99.6342 1.87938H99.7504H104.05C104.166 1.87938 104.282 1.87938 104.398 1.76192C104.515 1.64446 104.515 1.527 104.515 1.40954C104.515 1.29208 104.515 1.05716 104.398 1.05716C104.282 0.939695 104.166 0.939695 104.05 0.939695H99.7504H99.6342C98.8207 0.939695 97.8911 0.939695 96.9615 0.939695C96.0319 0.939695 95.1023 0.939695 94.1727 0.939695C94.0565 0.939695 93.8241 0.939695 93.7079 1.05716C93.4754 0.704775 93.4755 0.822235 93.4755 0.939695V1.17462C93.4755 4.58097 93.4755 8.33969 93.3593 12.3333C93.3593 12.4508 93.3593 12.5683 93.3593 12.6857C93.4755 12.9206 93.5917 13.0381 93.9403 13.0381C94.2889 13.0381 94.6375 13.0381 94.9861 13.0381H96.3805H99.0531H103.701C103.817 13.0381 104.05 13.0381 104.05 12.9206C104.282 12.9206 104.398 12.6857 104.398 12.5683Z" fill="white"/>
<path d="M109.163 12.8032C109.163 11.6286 109.163 8.10476 109.279 2.11429L115.321 7.16508C115.321 7.16508 115.438 7.28254 115.554 7.28254H115.67C115.786 7.28254 115.902 7.28254 116.019 7.16508L116.483 6.69524L117.413 5.87302L117.645 5.6381L119.505 3.99365L120.55 3.05397C121.015 2.70159 121.364 2.34921 121.712 1.99683C121.712 4.81588 121.712 7.75238 121.712 10.9238V12.5683C121.712 12.6857 121.712 12.8032 121.829 12.9206C121.945 13.0381 122.061 13.0381 122.177 13.0381C122.293 13.0381 122.526 13.0381 122.526 12.9206C122.642 12.8032 122.642 12.6857 122.642 12.5683C122.642 12.4508 122.642 11.746 122.642 10.6889C122.642 9.16191 122.642 7.75238 122.642 6.57778V0.704764V0.587303C122.642 0.469843 122.642 0.469843 122.526 0.352383C122.41 0.234922 122.293 0.117462 122.061 0.117462C121.945 0.117462 121.829 0.117462 121.712 0.234922L119.04 3.28889C119.04 3.28889 118.924 3.40635 118.807 3.40635C118.691 3.52381 118.575 3.64127 118.459 3.75873L117.762 4.34603L117.181 4.93334L116.832 5.16826L115.786 6.10794L109.163 0.587303C109.046 0.469843 108.93 0.469843 108.814 0.469843C108.582 0.469843 108.465 0.587303 108.349 0.704764C108.233 0.822224 108.233 0.939684 108.233 1.17461V3.75873V6.69524V12.8032C108.233 12.9206 108.233 13.1556 108.349 13.1556C108.465 13.273 108.582 13.273 108.698 13.273C108.814 13.273 108.93 13.273 109.046 13.1556C109.046 13.0381 109.163 12.9206 109.163 12.8032Z" fill="white"/>
<path d="M138.097 9.86667L138.794 11.0413L139.956 13.0381C139.956 13.1556 140.072 13.1556 140.189 13.273C140.305 13.273 140.421 13.3905 140.421 13.3905C140.537 13.3905 140.653 13.3905 140.653 13.273C140.886 13.1556 140.886 13.0381 140.886 12.8032C140.886 12.6857 140.886 12.5683 140.77 12.5683C140.305 11.746 139.956 11.0413 139.608 10.454C139.375 10.1016 139.375 9.86667 139.259 9.86667L139.143 9.39683C139.143 9.27937 138.794 8.80953 138.329 7.98731L137.865 7.16508L137.167 5.99048C136.935 5.6381 136.586 4.93334 135.889 3.75874C135.308 2.58413 134.727 1.64445 134.262 0.704767C134.146 0.469847 134.03 0.352386 133.797 0.352386C133.565 0.352386 133.449 0.469847 133.333 0.587307L132.984 1.29207C132.752 1.64445 132.403 2.23175 131.938 3.17143C131.009 4.81588 129.498 7.51747 127.29 11.1587L126.477 12.5683C126.477 12.6857 126.361 12.8032 126.361 12.9206C126.361 13.1556 126.477 13.273 126.593 13.3905C126.709 13.3905 126.825 13.5079 126.825 13.5079C126.942 13.5079 127.058 13.5079 127.058 13.3905C127.174 13.3905 127.174 13.273 127.29 13.1556L129.149 9.98413H133.216L138.097 9.86667ZM129.963 8.80953L132.868 3.64128L133.681 2.23175C134.262 3.28889 135.192 5.0508 136.586 7.40001L137.4 8.80953H133.681C133.1 8.80953 132.635 8.80953 131.938 8.80953C131.473 8.80953 130.776 8.80953 129.963 8.80953Z" fill="white"/>
<path d="M153.203 13.1556C154.133 12.8032 154.946 12.3333 155.411 11.746C155.876 11.1587 156.224 10.454 156.224 9.63175C156.224 8.33969 155.527 7.40001 154.017 6.81271C153.552 6.69525 152.971 6.57778 152.39 6.46032C151.809 6.34286 150.879 6.34286 149.833 6.2254H149.717C148.671 6.2254 147.858 6.10794 147.393 6.10794C146.812 5.99048 146.347 5.99048 145.999 5.75556C145.534 5.6381 145.185 5.40318 144.953 5.16826C144.72 4.93334 144.604 4.58096 144.604 4.22858C144.604 3.52382 144.953 2.81905 145.766 2.34921C146.463 1.87937 147.509 1.64445 148.787 1.52699C148.904 1.52699 149.136 1.52699 149.369 1.52699C150.531 1.52699 151.576 1.76191 152.622 2.11429C153.552 2.46667 154.249 3.05398 154.714 3.64128C154.83 3.75874 154.946 3.8762 155.179 3.8762C155.295 3.8762 155.411 3.8762 155.527 3.75874C155.643 3.64128 155.76 3.52382 155.76 3.2889C155.76 3.17144 155.76 3.05398 155.643 3.05398C155.179 2.23175 154.365 1.64445 153.203 1.17461C152.041 0.704769 150.879 0.469849 149.485 0.469849C149.252 0.469849 149.02 0.469849 148.904 0.469849C147.858 0.469849 146.928 0.704769 146.115 1.05715C145.301 1.40953 144.72 1.76191 144.256 2.34921C143.791 2.93652 143.558 3.52382 143.558 4.22858C143.558 4.93334 143.675 5.40318 144.139 5.87302C144.488 6.34286 145.069 6.69525 145.766 6.93017C146.231 7.04763 146.696 7.16509 147.277 7.28255C147.858 7.40001 148.671 7.40001 149.833 7.51747H149.95C150.995 7.63493 151.809 7.63493 152.39 7.75239C152.971 7.86985 153.436 7.98731 153.784 8.10477C154.249 8.33969 154.714 8.57461 154.946 8.80953C155.179 9.04445 155.295 9.51429 155.295 9.86667C155.295 10.454 155.062 10.9238 154.598 11.3937C154.133 11.8635 153.552 12.0984 152.738 12.3333C151.925 12.5683 150.995 12.6857 149.95 12.6857C148.904 12.6857 147.974 12.5683 147.161 12.3333C146.347 12.0984 145.534 11.8635 144.953 11.5111C144.372 11.1587 144.023 10.8064 143.907 10.3365C143.907 10.2191 143.791 10.1016 143.675 10.1016C143.558 9.98413 143.442 9.98413 143.326 9.98413C143.21 9.98413 143.21 9.98413 143.21 9.98413C143.094 9.98413 142.977 10.1016 142.977 10.2191C142.861 10.3365 142.861 10.454 142.861 10.5714C142.861 10.6889 142.861 10.6889 142.861 10.6889C143.094 11.2762 143.558 11.8635 144.139 12.3333C144.837 12.8032 145.65 13.1556 146.696 13.3905C147.742 13.6254 148.787 13.7429 149.95 13.7429C151.112 13.6254 152.274 13.5079 153.203 13.1556Z" fill="white"/>
<path d="M51.4104 26.8984C51.178 26.546 51.0618 26.3111 51.0618 26.3111L50.7131 25.7238C50.7131 25.7238 50.5969 25.4889 49.8997 24.3143L48.7377 22.3174C48.5053 21.9651 48.1567 21.2603 47.4595 20.0857C46.8785 19.0286 46.2975 17.9714 45.8327 17.0317C45.7165 16.7968 45.4841 16.5619 45.1355 16.5619C44.9031 16.5619 44.6706 16.6793 44.4382 16.9143L44.2058 17.3841C43.9734 17.7365 43.6248 18.3238 43.16 19.2635C42.2304 20.9079 40.6036 23.6095 38.512 27.2508L37.6985 28.6603C37.5823 28.7778 37.5823 28.8952 37.5823 29.0127C37.5823 29.1301 37.6985 29.4825 37.9309 29.6C38.1633 29.7174 38.3957 29.7174 38.7444 29.6C38.8606 29.4825 38.9768 29.4825 38.9768 29.3651L40.7198 26.3111H49.2025L50.9456 29.3651C51.0618 29.4825 51.0618 29.6 51.2942 29.6C51.4104 29.7174 51.5266 29.7174 51.6428 29.7174C51.759 29.7174 51.8752 29.7174 51.9914 29.6C52.2238 29.4825 52.34 29.2476 52.34 29.0127C52.34 28.8952 52.34 28.7778 52.2238 28.6603C52.1076 28.073 51.759 27.4857 51.4104 26.8984ZM48.6215 25.019H43.5086C43.0438 25.019 42.3466 25.019 41.7656 25.019L44.5544 20.2032L45.2517 19.0286C45.8327 20.0857 46.7623 21.7301 48.0405 23.9619L48.6215 25.019Z" fill="white"/>
<path d="M68.8406 17.5016C68.8406 17.2667 68.7244 17.1492 68.6082 17.0317C68.3758 16.6794 67.911 16.6794 67.5624 17.0317C67.4462 17.1492 67.33 17.3841 67.33 17.619C67.33 19.8508 67.33 23.2571 67.33 27.7206C65.4708 25.9587 64.3088 24.9016 63.9602 24.5492L60.3579 21.0254L57.9177 18.6762C57.6853 18.4413 57.1043 17.854 56.2908 17.1492C55.9422 16.9143 55.4774 16.9143 55.245 17.1492C55.1288 17.2667 55.0126 17.5016 55.0126 17.7365L54.8964 29.4825C54.8964 29.7175 55.0126 29.8349 55.1288 30.0698C55.245 30.1873 55.4774 30.3048 55.5936 30.3048C55.826 30.3048 55.9422 30.3048 56.1746 30.0698C56.2908 29.9524 56.407 29.7175 56.407 29.4825C56.407 28.7778 56.407 27.0159 56.407 24.1968V19.3809L59.1959 22.0825C60.5903 23.4921 63.3792 26.1936 67.4462 30.0698C67.5624 30.1873 67.7948 30.3048 67.911 30.3048C68.1434 30.3048 68.2596 30.1873 68.492 30.0698C68.6082 29.9524 68.7244 29.7175 68.7244 29.4825C68.7244 28.073 68.7244 26.0762 68.7244 23.4921C68.8407 20.9079 68.8406 18.9111 68.8406 17.5016Z" fill="white"/>
<path d="M85.4575 27.0159C85.2251 26.6635 85.1089 26.4286 85.1089 26.4286L84.8765 25.8413C84.8765 25.8413 84.7603 25.6064 84.0631 24.4318L82.901 22.4349C82.6686 22.0826 82.32 21.3778 81.6228 20.2032C81.0418 19.146 80.4608 18.0889 79.996 17.1492C79.8798 16.9143 79.6474 16.6794 79.2988 16.6794C79.0664 16.6794 78.834 16.7968 78.6016 17.0318L78.3692 17.7365C78.1368 18.0889 77.7882 18.6762 77.3234 19.6159C76.3937 21.2603 74.7669 23.9619 72.6753 27.6032L71.8619 29.0127C71.7457 29.1302 71.7457 29.2476 71.7457 29.3651C71.7457 29.4826 71.8619 29.8349 72.0943 29.9524C72.3267 30.0699 72.5591 30.0699 72.9077 29.9524C73.0239 29.8349 73.1401 29.8349 73.1401 29.7175L74.8831 26.6635H83.3659L85.1089 29.7175C85.2251 29.8349 85.2251 29.9524 85.4575 29.9524C85.5737 30.0699 85.6899 30.0699 85.8061 30.0699C85.9223 30.0699 86.0385 30.0699 86.1547 29.9524C86.3871 29.8349 86.5033 29.6 86.5033 29.3651C86.5033 29.2476 86.5033 29.1302 86.3871 29.0127C86.1547 28.308 85.8061 27.6032 85.4575 27.0159ZM82.6686 25.1365H77.5558C77.091 25.1365 76.3937 25.1365 75.8127 25.1365L78.6016 20.3207L79.2988 19.146C79.8798 20.2032 80.8094 21.8476 82.0876 24.0794L82.6686 25.1365Z" fill="white"/>
<path d="M100.564 28.6603H93.0106C92.1972 28.6603 91.3838 28.6603 90.5704 28.6603C90.5704 26.4286 90.6866 24.3143 90.6866 22.2C90.6866 20.0857 90.6866 18.5587 90.6866 17.619C90.6866 17.3841 90.5704 17.2667 90.4542 17.1492C90.2218 16.7968 89.757 16.7968 89.4084 17.1492C89.2922 17.2667 89.176 17.5016 89.176 17.7365C89.176 18.6762 89.176 20.2032 89.176 22.4349C89.176 24.6667 89.176 27.0159 89.0598 29.3651C89.0598 29.6 89.0598 29.8349 89.2922 30.0698C89.4084 30.1873 89.6408 30.3048 89.8732 30.3048C90.8028 30.3048 91.7324 30.3048 92.7782 30.3048H100.564C100.796 30.3048 100.912 30.1873 101.145 30.0698C101.261 29.9524 101.377 29.7175 101.377 29.4825C101.377 29.2476 101.261 29.1302 101.145 28.8952C100.912 28.7778 100.796 28.6603 100.564 28.6603Z" fill="white"/>
<path d="M105.909 19.381C105.56 19.146 105.096 19.146 104.863 19.381C104.747 19.4984 104.631 19.7333 104.631 19.9683V28.8952C104.631 29.2476 104.631 29.4825 104.631 29.7175C104.631 29.8349 104.747 30.0699 104.863 30.0699C104.979 30.1873 105.096 30.1873 105.328 30.1873C105.444 30.1873 105.444 30.1873 105.56 30.1873C105.793 30.1873 106.141 29.9524 106.141 29.3651V19.8508C106.141 19.7333 106.025 19.6159 105.909 19.381Z" fill="white"/>
<path d="M129.033 17.2667C128.685 17.0318 128.22 17.0318 127.987 17.2667C127.871 17.3841 127.755 17.6191 127.755 17.854V29.1302C127.755 29.4825 127.755 29.7175 127.755 29.9524C127.755 30.0699 127.871 30.3048 127.987 30.3048C128.104 30.4222 128.22 30.4222 128.452 30.4222C128.568 30.4222 128.568 30.4222 128.685 30.4222C128.917 30.4222 129.266 30.1873 129.266 29.6V17.854C129.266 17.6191 129.149 17.3841 129.033 17.2667Z" fill="white"/>
<path d="M124.269 17.3841C124.153 17.2667 123.92 17.1492 123.804 17.1492H121.248L115.554 17.0317C114.043 17.0317 112.3 17.0317 110.441 17.0317C110.209 17.0317 110.092 17.1492 109.976 17.2667C109.86 17.3841 109.744 17.619 109.744 17.7365C109.744 17.9714 109.86 18.0889 109.976 18.3238C110.092 18.4413 110.325 18.5587 110.557 18.5587C112.997 18.5587 114.973 18.5587 116.483 18.5587C116.483 23.4921 116.483 27.1333 116.483 29.6C116.483 29.8349 116.6 29.9524 116.716 30.1873C116.832 30.3048 117.064 30.4222 117.297 30.4222C117.529 30.4222 117.645 30.3048 117.878 30.1873C117.994 30.0698 118.11 29.8349 118.11 29.6C118.11 27.1333 118.11 23.4921 118.11 18.5587H124.037C124.269 18.5587 124.385 18.4413 124.618 18.3238C124.734 18.2063 124.85 17.9714 124.85 17.7365C124.385 17.7365 124.385 17.619 124.269 17.3841Z" fill="white"/>
<path d="M145.534 26.6635C145.301 26.6635 145.069 26.781 144.953 26.8984C144.139 27.7206 143.442 28.3079 142.629 28.5429C142.164 28.7778 141.699 28.8953 141.118 29.0127C140.537 29.1302 139.956 29.1302 139.375 29.1302C138.446 29.1302 137.632 29.0127 136.819 28.6603C136.005 28.3079 135.424 27.8381 134.843 27.1333C134.495 26.6635 134.262 26.1937 134.03 25.6064C133.797 25.0191 133.797 24.4318 133.797 23.8445C133.797 23.727 133.797 23.4921 133.797 23.1397C133.914 22.4349 134.146 21.7302 134.495 21.0254C134.843 20.3206 135.308 19.8508 135.773 19.381C137.051 18.3238 138.562 17.9714 140.537 18.0889C141.351 18.2064 142.048 18.3238 142.513 18.5587C143.094 18.7937 143.558 19.2635 144.139 19.7333C144.256 19.8508 144.488 19.9683 144.604 19.9683C144.837 19.9683 145.069 19.8508 145.185 19.7333C145.301 19.6159 145.418 19.381 145.418 19.2635C145.418 19.0286 145.301 18.7937 145.185 18.6762C144.488 18.0889 143.907 17.5016 143.21 17.2667C142.513 16.9143 141.699 16.6794 140.77 16.5619C140.305 16.5619 139.84 16.4445 139.608 16.4445C137.748 16.4445 136.122 17.0318 134.843 18.0889C134.146 18.6762 133.681 19.381 133.216 20.2032C132.752 21.0254 132.519 21.8476 132.403 22.7873C132.403 23.1397 132.403 23.3746 132.403 23.727C132.403 24.5492 132.519 25.254 132.752 25.9587C132.984 26.6635 133.333 27.3683 133.681 27.8381C134.843 29.4826 136.703 30.3048 138.91 30.3048H139.491C140.886 30.3048 142.164 30.0699 143.094 29.6C144.023 29.1302 145.069 28.4254 145.999 27.4857C146.115 27.3683 146.231 27.1333 146.231 27.0159C146.231 26.781 146.115 26.6635 145.999 26.4286C145.999 26.781 145.766 26.6635 145.534 26.6635Z" fill="white"/>
<path d="M161.337 19.2635C160.64 18.4413 159.827 17.854 158.781 17.5016C157.735 17.0317 156.689 16.9143 155.527 16.9143C154.481 16.9143 153.552 17.0317 152.506 17.3841C151.576 17.7365 150.763 18.2063 150.066 18.9111C149.369 19.4984 148.904 20.3206 148.555 21.1428C148.207 21.9651 147.974 22.9048 147.974 23.8444C147.974 24.6667 148.09 25.4889 148.439 26.3111C148.671 27.1333 149.136 27.8381 149.601 28.4254C150.647 29.7175 152.041 30.4222 153.784 30.7746C154.249 30.8921 154.714 30.8921 155.295 30.8921C156.224 30.8921 157.27 30.7746 158.2 30.5397C159.129 30.3048 159.943 29.8349 160.524 29.3651C161.337 28.6603 161.918 27.9555 162.267 27.0159C162.732 26.1936 162.964 25.1365 162.964 24.1968C162.964 23.2571 162.848 22.4349 162.499 21.6127C162.383 20.673 161.918 19.8508 161.337 19.2635ZM155.527 18.3238C156.457 18.3238 157.386 18.4413 158.2 18.7936C159.013 19.146 159.711 19.6159 160.292 20.2032C160.756 20.673 161.105 21.2603 161.337 21.8476C161.57 22.4349 161.686 23.1397 161.686 23.8444C161.686 24.6667 161.57 25.4889 161.221 26.0762C160.873 26.7809 160.408 27.3682 159.827 27.8381C158.781 28.6603 157.386 29.1301 155.76 29.1301C155.527 29.1301 155.295 29.1301 155.179 29.1301C153.436 29.0127 152.041 28.4254 150.995 27.2508C150.531 26.7809 150.298 26.1936 150.066 25.6063C149.833 25.019 149.717 24.3143 149.717 23.727C149.717 23.0222 149.833 22.3175 150.182 21.6127C150.414 20.9079 150.879 20.3206 151.344 19.8508C151.925 19.3809 152.506 18.9111 153.319 18.6762C153.9 18.4413 154.714 18.3238 155.527 18.3238Z" fill="white"/>
<path d="M176.676 23.6095C176.211 23.4921 175.63 23.3746 174.933 23.2571C174.352 23.1397 173.422 23.1397 172.376 23.0222H172.26C171.214 23.0222 170.517 22.9048 169.936 22.9048C169.355 22.7873 168.89 22.7873 168.542 22.5524C168.077 22.4349 167.728 22.2 167.612 21.9651C167.38 21.7302 167.38 21.4952 167.38 21.1429C167.38 20.4381 167.728 19.8508 168.426 19.4984C169.123 19.0286 170.169 18.7936 171.331 18.6762C171.447 18.6762 171.563 18.6762 171.795 18.6762C172.957 18.6762 174.003 18.9111 174.933 19.2635C175.863 19.6159 176.56 20.0857 176.908 20.7905C177.025 21.0254 177.257 21.1429 177.489 21.1429C177.606 21.1429 177.722 21.1429 177.954 21.0254C178.187 20.9079 178.303 20.673 178.303 20.4381C178.303 20.3206 178.303 20.0857 178.187 20.0857C177.606 19.2635 176.792 18.5587 175.63 18.0889C174.468 17.619 173.19 17.3841 171.795 17.3841C171.563 17.3841 171.331 17.3841 171.214 17.3841C170.169 17.3841 169.239 17.619 168.426 17.9714C167.612 18.3238 166.915 18.7936 166.566 19.381C166.102 19.9683 165.869 20.673 165.869 21.3778C165.869 22.0825 166.102 22.6698 166.45 23.1397C166.799 23.6095 167.38 23.9619 168.193 24.1968C168.658 24.3143 169.239 24.4317 169.704 24.5492C170.285 24.6667 171.098 24.6667 172.26 24.7841H172.376C173.422 24.9016 174.236 24.9016 174.817 25.019C175.398 25.1365 175.863 25.1365 176.211 25.3714C176.676 25.4889 177.025 25.7238 177.257 25.9587C177.489 26.1937 177.606 26.546 177.606 26.8984C177.606 27.3683 177.373 27.8381 177.025 28.1905C176.56 28.5429 175.979 28.8952 175.282 29.1302C174.468 29.3651 173.655 29.4825 172.609 29.4825C171.679 29.4825 170.75 29.3651 169.82 29.1302C169.007 28.8952 168.309 28.6603 167.728 28.3079C167.147 27.9556 166.915 27.6032 166.683 27.2508C166.566 27.1333 166.566 27.0159 166.45 26.8984C166.218 26.781 165.985 26.781 165.753 26.781C165.637 26.8984 165.521 26.8984 165.404 27.0159C165.288 27.1333 165.288 27.2508 165.288 27.4857C165.288 27.6032 165.288 27.6032 165.288 27.7206C165.521 28.4254 165.985 28.8952 166.683 29.4825C167.38 29.9524 168.193 30.3048 169.239 30.6571C170.285 30.8921 171.331 31.0095 172.493 31.0095C173.771 31.0095 174.933 30.8921 175.979 30.5397C176.908 30.1873 177.722 29.7175 178.303 29.1302C178.884 28.5429 179.116 27.7206 179.116 26.8984C179 25.1365 178.303 24.1968 176.676 23.6095Z" fill="white"/>
<path d="M107.536 16.5619L105.909 18.4413C105.793 18.5587 105.677 18.6762 105.444 18.6762C104.979 18.6762 104.747 18.2063 104.979 17.7365L106.141 15.9746C106.258 15.8571 106.374 15.7397 106.606 15.7397H107.187C107.536 15.6222 107.768 16.2095 107.536 16.5619Z" fill="white"/>
<path d="M39.3254 36.5302C38.3958 36.5302 37.6985 35.8254 37.6985 35.0032C37.6985 34.0635 38.3958 33.4762 39.3254 33.4762C39.9064 33.4762 40.3712 33.5937 40.7198 34.0635L40.4874 34.2984C40.1388 33.946 39.7902 33.8286 39.3254 33.8286C38.6282 33.8286 37.931 34.2984 37.931 35.1206C37.931 35.8254 38.512 36.4127 39.2092 36.4127C39.674 36.4127 40.1388 36.1778 40.4874 35.8254L40.7198 36.0603C40.3712 36.2952 39.9064 36.5302 39.3254 36.5302Z" fill="white"/>
<path d="M44.4382 36.5302C43.5086 36.5302 42.8114 35.8254 42.8114 35.0032C42.8114 34.0635 43.5086 33.4762 44.4382 33.4762C45.3678 33.4762 46.0651 34.181 46.0651 35.0032C45.9489 35.9429 45.2516 36.6476 44.4382 36.5302ZM44.4382 33.7111C43.741 33.7111 43.16 34.181 43.16 35.0032C43.16 35.7079 43.741 36.2952 44.4382 36.2952C45.1354 36.2952 45.7164 35.8254 45.7164 35.0032C45.7164 34.2984 45.1354 33.7111 44.4382 33.7111Z" fill="white"/>
<path d="M50.9455 36.5302V34.0635L49.7835 36.1778L48.6215 34.0635V36.5302H48.2729L48.3891 33.5937H48.6215L49.7835 35.5905L50.9455 33.5937H51.2941V36.5302H50.9455Z" fill="white"/>
<path d="M55.9422 35.1206C55.826 35.2381 55.4774 35.2381 55.245 35.2381H53.9668V36.5302H53.7344V33.5937H55.4774C55.7098 33.5937 55.826 33.5937 56.0584 33.8286C56.2908 33.946 56.2908 34.2984 56.2908 34.5333C56.2908 34.7683 56.1746 35.0032 55.9422 35.1206ZM55.4774 33.8286H54.083V35.0032H55.3612C55.5936 35.0032 55.7098 35.0032 55.826 34.8857C55.9422 34.7683 56.0584 34.5333 56.0584 34.4159C56.0584 34.0635 55.826 33.8286 55.4774 33.8286Z" fill="white"/>
<path d="M60.9389 35.1206C60.8227 35.2381 60.5903 35.2381 60.4741 35.2381L61.1713 36.5302H60.8227L60.1255 35.2381H58.8473V36.5302H58.6149V33.5937H60.3579C60.7065 33.5937 60.7065 33.5937 60.9389 33.7111C61.1713 33.8286 61.2875 34.181 61.2875 34.4159C61.2875 34.7683 61.1713 35.0032 60.9389 35.1206ZM60.7065 33.946C60.5903 33.8286 60.4741 33.8286 60.1255 33.8286H58.7311V35.0032H60.1255C60.4741 35.0032 60.5903 35.0032 60.7065 34.8857C60.8227 34.7683 60.9389 34.5333 60.9389 34.4159C61.0551 34.2984 60.9389 34.0635 60.7065 33.946Z" fill="white"/>
<path d="M64.8898 36.6476C63.9602 36.6476 63.2629 35.9429 63.2629 35.1206C63.2629 34.181 63.9602 33.5937 64.8898 33.5937C65.8194 33.5937 66.5166 34.2984 66.5166 35.1206C66.5166 36.0603 65.8194 36.6476 64.8898 36.6476ZM65.006 33.8286C64.3088 33.8286 63.7277 34.2984 63.7277 35.1206C63.7277 35.8254 64.3088 36.4127 65.006 36.4127C65.7032 36.4127 66.2842 35.9429 66.2842 35.1206C66.2842 34.4159 65.7032 33.8286 65.006 33.8286Z" fill="white"/>
<path d="M71.5133 36.6476V34.181L70.3513 36.1778L69.073 34.181V36.6476H68.8406V33.5937H69.073L70.3513 35.7079L71.5133 33.7111H71.7457V36.6476H71.5133Z" fill="white"/>
<path d="M74.3021 36.6476V33.7111H76.7424V33.946H74.5345V35.0032H75.6965V35.2381H74.5345V36.4127H76.8586V36.6476H74.3021Z" fill="white"/>
<path d="M80.2284 33.946V36.6476H79.8798V33.946H78.834V33.7111H81.2742V33.946H80.2284Z" fill="white"/>
<path d="M83.5983 36.6476V33.7111H83.8307V36.6476H83.5983Z" fill="white"/>
<path d="M87.6654 36.7651H86.2709V33.8286H87.6654C88.4788 33.8286 89.0598 34.4159 89.0598 35.3556C89.176 36.0603 88.4788 36.7651 87.6654 36.7651ZM87.7816 33.946H86.6195V36.4127H87.7816C88.3626 36.4127 88.9436 36.0603 88.9436 35.2381C88.8274 34.4159 88.3626 33.946 87.7816 33.946Z" fill="white"/>
<path d="M92.7782 36.7651C91.8486 36.7651 91.1514 36.0603 91.1514 35.2381C91.1514 34.2984 91.8486 33.7111 92.7782 33.7111C93.7078 33.7111 94.405 34.4159 94.405 35.2381C94.405 36.1778 93.7078 36.7651 92.7782 36.7651ZM92.8944 33.946C92.1972 33.946 91.6162 34.4159 91.6162 35.2381C91.6162 35.9429 92.1972 36.5302 92.8944 36.5302C93.5916 36.5302 94.1726 36.0603 94.1726 35.2381C94.1726 34.5333 93.5916 33.946 92.8944 33.946Z" fill="white"/>
<path d="M97.7749 36.7651C97.5425 36.7651 97.3101 36.7651 97.0777 36.6476C96.7291 36.5302 96.6129 36.4127 96.3805 36.1778L96.6129 35.9429C96.9615 36.2952 97.3101 36.5302 97.8911 36.5302C98.2397 36.5302 99.0531 36.4127 99.0531 35.9429C99.0531 35.5905 98.7045 35.3556 98.3559 35.3556C98.2397 35.3556 97.7749 35.3556 97.5425 35.3556C97.0777 35.3556 96.6129 35.1206 96.6129 34.6508C96.6129 34.181 96.9615 33.946 97.4263 33.8286C97.6587 33.8286 97.7749 33.7111 98.0073 33.7111C98.4721 33.7111 98.8207 33.8286 99.1693 34.181L99.0531 34.4159C98.7045 34.181 98.4721 34.0635 98.0073 34.0635C97.8911 34.0635 97.7749 34.0635 97.6587 34.0635C97.4263 34.181 97.0777 34.2984 97.0777 34.6508C97.0777 35.0032 97.4263 35.1206 97.7749 35.1206C98.0073 35.1206 98.3559 35.1206 98.5883 35.1206C99.0531 35.1206 99.5179 35.473 99.5179 35.9429C99.1693 36.6476 98.3559 36.7651 97.7749 36.7651Z" fill="white"/>
<path d="M105.677 36.8825C104.747 36.8825 104.05 36.1778 104.05 35.3556C104.05 34.4159 104.747 33.8286 105.677 33.8286C106.258 33.8286 106.722 33.946 107.071 34.4159L106.839 34.6508C106.49 34.2984 106.141 34.181 105.677 34.181C104.979 34.181 104.282 34.6508 104.282 35.473C104.282 36.1778 104.863 36.7651 105.56 36.7651C106.025 36.7651 106.49 36.5302 106.839 36.1778L107.071 36.4127C106.722 36.6476 106.258 36.8825 105.677 36.8825Z" fill="white"/>
<path d="M110.673 36.8825C109.744 36.8825 109.047 36.1778 109.047 35.3556C109.047 34.4159 109.744 33.8286 110.673 33.8286C111.603 33.8286 112.3 34.5333 112.3 35.3556C112.3 36.1778 111.603 36.8825 110.673 36.8825ZM110.673 34.0635C109.976 34.0635 109.395 34.5333 109.395 35.3556C109.395 36.0603 109.976 36.6476 110.673 36.6476C111.371 36.6476 111.952 36.1778 111.952 35.3556C112.068 34.5333 111.487 34.0635 110.673 34.0635Z" fill="white"/>
<path d="M116.948 36.8825L114.973 34.2984V36.7651H114.624V33.8286H114.973L116.948 36.4127L117.064 33.8286H117.297V36.8825H116.948Z" fill="white"/>
<path d="M122.642 36.8825L122.758 33.8286H122.991V36.5302L124.85 36.6476V36.8825H122.642Z" fill="white"/>
<path d="M129.382 36.8826L128.917 35.8254H127.406L126.942 36.8826H126.593L128.104 33.946H128.336L129.73 36.8826H129.382ZM128.104 34.2984L127.523 35.5905H128.801L128.104 34.2984Z" fill="white"/>
<path d="M135.657 37C135.424 37 135.192 37 134.959 36.8826C134.611 36.7651 134.495 36.6476 134.262 36.4127L134.495 36.1778C134.843 36.5302 135.192 36.7651 135.773 36.7651C136.121 36.7651 136.935 36.6476 136.935 36.1778C136.935 35.8254 136.586 35.5905 136.238 35.5905C136.122 35.5905 135.657 35.5905 135.424 35.5905C134.959 35.5905 134.495 35.3556 134.495 34.8857C134.495 34.4159 134.843 34.181 135.308 34.0635C135.54 34.0635 135.657 33.946 135.889 33.946C136.354 33.946 136.703 34.0635 137.051 34.4159L136.935 34.6508C136.586 34.4159 136.354 34.2984 135.889 34.2984C135.773 34.2984 135.657 34.2984 135.54 34.2984C135.308 34.4159 134.959 34.5333 134.959 34.8857C134.959 35.2381 135.308 35.3556 135.657 35.3556C135.889 35.3556 136.238 35.3556 136.47 35.3556C136.935 35.3556 137.4 35.7079 137.4 36.1778C137.167 36.7651 136.238 37 135.657 37Z" fill="white"/>
<path d="M141.699 36.8826L141.234 35.8254H139.724L139.259 36.8826H138.91L140.421 33.946H140.653L142.048 36.8826H141.699ZM140.421 34.2984L139.84 35.5905H141.118L140.421 34.2984Z" fill="white"/>
<path d="M144.023 37V33.946H144.256V36.6476H146.115V37H144.023Z" fill="white"/>
<path d="M149.485 37C148.787 37 148.206 36.6476 148.206 35.8254V33.946H148.439V35.8254C148.439 36.5302 148.904 36.6476 149.485 36.6476C149.833 36.6476 150.182 36.5302 150.414 36.2952C150.531 36.1778 150.531 35.9429 150.531 35.8254V33.946H150.763V35.8254C150.879 36.7651 150.182 37 149.485 37Z" fill="white"/>
<path d="M154.714 37H153.319V34.0635H154.714C155.527 34.0635 156.108 34.6508 156.108 35.5905C156.108 36.4127 155.527 37 154.714 37ZM154.714 34.2984H153.552V36.7651H154.714C155.295 36.7651 155.876 36.4127 155.876 35.5905C155.876 34.7682 155.411 34.2984 154.714 34.2984Z" fill="white"/>
<path d="M7.25366 23.2572C8.29948 22.2 9.8101 22.0826 10.9721 22.7873C10.9721 22.7873 12.5989 24.3143 14.4582 24.1968C15.8526 24.0794 16.8984 23.3746 17.3632 22.2C17.7118 21.0254 16.666 19.381 15.1554 18.7937C14.2258 18.4413 13.0638 18.4413 12.2503 18.4413C11.9017 18.7937 11.5531 18.7937 11.2045 18.7937C9.8101 18.7937 8.41568 18.2064 7.36987 17.1492C5.16203 14.9175 5.16203 11.3937 7.36987 9.16192C9.3453 7.28255 12.0179 7.04763 14.2258 8.22223C14.2258 8.22223 14.5744 8.45715 14.8068 8.69207C15.8526 9.39684 18.1766 10.6889 20.1521 9.98414C22.1275 9.27938 23.5219 7.40001 24.1029 6.46033C24.2191 6.22541 24.5677 5.75557 24.9163 5.28573C26.427 3.52382 29.2158 3.64128 30.8426 5.28573C32.4695 6.93017 32.4695 9.63176 30.8426 11.2762C29.332 12.8032 27.1242 12.6857 25.3811 11.6286C23.2895 10.3365 18.5252 9.27938 17.1308 14.4476C16.7822 15.6222 17.1308 17.7365 18.409 18.5587C19.8035 19.381 20.8493 19.381 21.6627 19.381C23.0571 19.2635 24.4515 19.7333 25.4974 20.7905C27.3566 22.6699 27.3566 25.6064 25.4974 27.4857C23.6381 29.3651 20.7331 29.2476 18.8738 27.4857C18.7576 27.3683 16.666 25.0191 14.8068 25.6064C14.8068 25.6064 13.18 25.8413 11.6693 27.9556C10.6235 29.3651 8.53188 29.1302 7.36987 27.9556C6.09165 26.4286 6.09165 24.5492 7.25366 23.2572Z" fill="white"/>
<path d="M17.1308 5.16825C17.9442 5.99047 19.3386 5.99047 20.1521 5.16825C20.9655 4.34602 20.9655 2.9365 20.1521 2.11428C19.3386 1.17459 17.9442 1.17459 17.1308 2.11428C16.3174 2.9365 16.3174 4.22856 17.1308 5.16825Z" fill="white"/>
<path d="M4.34861 20.673C4.81341 21.1428 5.39442 21.1428 5.85923 20.673C6.32404 20.2032 6.32404 19.6159 5.85923 19.146C5.39442 18.6762 4.81341 18.6762 4.34861 19.146C3.8838 19.6159 3.8838 20.3206 4.34861 20.673Z" fill="white"/>
</g>
<defs>
<filter id="filter0_d" x="0" y="0" width="183" height="45" filterUnits="userSpaceOnUse" color-interpolation-filters="sRGB">
<feFlood flood-opacity="0" result="BackgroundImageFix"/>
<feColorMatrix in="SourceAlpha" type="matrix" values="0 0 0 0 0 0 0 0 0 0 0 0 0 0 0 0 0 0 127 0"/>
<feOffset dy="4"/>
<feGaussianBlur stdDeviation="2"/>
<feColorMatrix type="matrix" values="0 0 0 0 0 0 0 0 0 0 0 0 0 0 0 0 0 0 0.25 0"/>
<feBlend mode="normal" in2="BackgroundImageFix" result="effect1_dropShadow"/>
<feBlend mode="normal" in="SourceGraphic" in2="effect1_dropShadow" result="shape"/>
</filter>
<clipPath id="clip0">
<rect width="175" height="37" fill="white" transform="translate(4)"/>
</clipPath>
</defs>
</svg>
