<svg width="254" height="244" viewBox="0 0 254 244" fill="none" xmlns="http://www.w3.org/2000/svg">
<g opacity="0.2" clip-path="url(#clip0)">
<path d="M224.248 195.85C214.923 186.692 200.713 185.363 190.056 192.157C190.056 192.157 174.958 206.041 158.528 205.155C145.502 204.564 136.325 197.918 132.625 187.579C129.072 177.24 138.545 162.174 152.459 157.448C160.452 154.642 171.258 153.903 178.807 154.642C181.915 154.937 185.171 155.38 188.28 155.232C188.428 155.232 188.428 155.232 188.428 155.232C200.861 154.789 213.295 149.915 222.768 140.315C242.751 120.523 242.603 88.4721 222.768 68.8281C206.042 52.2857 180.879 49.7748 161.488 61.1477C161.488 61.1477 158.528 62.7724 155.864 64.9879C145.946 71.339 124.928 82.4165 107.166 76.3608C89.4033 70.1574 77.1178 53.0242 71.7891 44.4576C70.901 42.6852 67.7926 37.6634 64.3881 33.9709C50.3264 18.7579 25.7553 19.4964 11.1014 34.2663C-3.55243 49.0363 -3.40439 72.816 11.3975 87.4382C24.8672 100.879 44.9977 100.436 60.6877 90.6876C79.19 79.1671 122.559 69.862 135.141 116.24C138.101 126.874 135.141 145.78 123.448 152.869C111.162 160.402 101.689 160.402 94.1399 159.959C81.8543 159.368 69.1247 162.765 59.7996 172.218C43.3695 188.76 43.5175 215.494 60.0956 231.889C76.6737 248.283 103.465 248.136 119.895 231.593C120.931 230.559 139.73 209.438 156.9 214.312C156.9 214.312 172.146 216.676 185.763 234.99C195.681 247.692 214.035 245.625 224.84 234.843C235.202 223.913 235.054 206.484 224.248 195.85Z" fill="url(#paint0_radial)"/>
<path d="M135.141 32.937C127.592 40.4697 115.307 40.6174 107.758 33.0847C100.061 25.552 99.9126 13.293 107.462 5.76029C115.011 -1.7724 127.296 -1.9201 134.845 5.61259C142.542 13.1453 142.542 25.4044 135.141 32.937Z" fill="url(#paint1_radial)"/>
<path d="M251.188 172.366C247.487 176.206 241.27 176.206 237.422 172.366C233.573 168.525 233.573 162.47 237.422 158.63C241.122 154.789 247.339 154.789 251.188 158.63C254.888 162.47 254.888 168.673 251.188 172.366Z" fill="url(#paint2_radial)"/>
</g>
<defs>
<radialGradient id="paint0_radial" cx="0" cy="0" r="1" gradientUnits="userSpaceOnUse" gradientTransform="translate(132.959 139.184) rotate(180) scale(137.055 136.76)">
<stop stop-color="#F18B00"/>
<stop offset="0.0928096" stop-color="#EF8400"/>
<stop offset="1" stop-color="#DC4400"/>
</radialGradient>
<radialGradient id="paint1_radial" cx="0" cy="0" r="1" gradientUnits="userSpaceOnUse" gradientTransform="translate(132.959 139.184) rotate(180) scale(137.055 136.76)">
<stop stop-color="#F18B00"/>
<stop offset="0.0928096" stop-color="#EF8400"/>
<stop offset="1" stop-color="#DC4400"/>
</radialGradient>
<radialGradient id="paint2_radial" cx="0" cy="0" r="1" gradientUnits="userSpaceOnUse" gradientTransform="translate(132.959 139.184) rotate(180) scale(137.055 136.76)">
<stop stop-color="#F18B00"/>
<stop offset="0.0928096" stop-color="#EF8400"/>
<stop offset="1" stop-color="#DC4400"/>
</radialGradient>
<clipPath id="clip0">
<rect width="254" height="244" fill="white" transform="matrix(-1 0 0 1 254 0)"/>
</clipPath>
</defs>
</svg>
